<mxfile host="drawio-plugin" modified="2022-07-28T12:46:00.479Z" agent="5.0 (Windows NT 6.2; Win64; x64) AppleWebKit/537.36 (KHTML, like Gecko) Chrome/97.0.4692.45 Safari/537.36" etag="eRZaBMJDD8KPGsRxVUrf" version="15.5.4" type="embed"><diagram id="23iRSUPoRavnBvh4doch" name="Page-1"><mxGraphModel dx="836" dy="1772" grid="1" gridSize="10" guides="1" tooltips="1" connect="1" arrows="1" fold="1" page="1" pageScale="1" pageWidth="827" pageHeight="1169" math="0" shadow="0"><root><mxCell id="0"/><mxCell id="1" parent="0"/><mxCell id="13" value="" style="edgeStyle=orthogonalEdgeStyle;rounded=0;orthogonalLoop=1;jettySize=auto;html=1;" parent="1" source="3" target="7" edge="1"><mxGeometry relative="1" as="geometry"/></mxCell><mxCell id="3" value="Actor" style="shape=umlActor;verticalLabelPosition=bottom;verticalAlign=top;html=1;outlineConnect=0;" parent="1" vertex="1"><mxGeometry x="75" y="-20" width="30" height="60" as="geometry"/></mxCell><mxCell id="4" value="" style="endArrow=classic;html=1;rounded=0;startArrow=none;" parent="1" source="7" edge="1"><mxGeometry width="50" height="50" relative="1" as="geometry"><mxPoint x="75" y="190" as="sourcePoint"/><mxPoint x="90" y="180" as="targetPoint"/></mxGeometry></mxCell><mxCell id="6" value="登录" style="text;html=1;strokeColor=none;fillColor=none;align=center;verticalAlign=middle;whiteSpace=wrap;rounded=0;" parent="1" vertex="1"><mxGeometry x="60" y="145" width="60" height="30" as="geometry"/></mxCell><mxCell id="7" value="登录" style="rhombus;whiteSpace=wrap;html=1;" parent="1" vertex="1"><mxGeometry x="50" y="120" width="80" height="80" as="geometry"/></mxCell><mxCell id="8" value="" style="endArrow=none;html=1;rounded=0;" parent="1" source="3" target="7" edge="1"><mxGeometry width="50" height="50" relative="1" as="geometry"><mxPoint x="90" y="40" as="sourcePoint"/><mxPoint x="90" y="180" as="targetPoint"/></mxGeometry></mxCell><mxCell id="9" value="" style="endArrow=classic;html=1;rounded=0;exitX=0.5;exitY=1;exitDx=0;exitDy=0;" parent="1" source="7" edge="1"><mxGeometry width="50" height="50" relative="1" as="geometry"><mxPoint x="75" y="190" as="sourcePoint"/><mxPoint x="90" y="300" as="targetPoint"/></mxGeometry></mxCell><mxCell id="10" value="登录成功" style="text;html=1;strokeColor=none;fillColor=none;align=center;verticalAlign=middle;whiteSpace=wrap;rounded=0;" parent="1" vertex="1"><mxGeometry x="99" y="230" width="60" height="30" as="geometry"/></mxCell><mxCell id="15" value="" style="endArrow=classic;html=1;rounded=0;exitX=1;exitY=0.5;exitDx=0;exitDy=0;" parent="1" source="7" edge="1"><mxGeometry width="50" height="50" relative="1" as="geometry"><mxPoint x="250" y="220" as="sourcePoint"/><mxPoint x="90" y="80" as="targetPoint"/><Array as="points"><mxPoint x="280" y="160"/><mxPoint x="280" y="80"/></Array></mxGeometry></mxCell><mxCell id="16" value="登录失败" style="text;html=1;strokeColor=none;fillColor=none;align=center;verticalAlign=middle;whiteSpace=wrap;rounded=0;" parent="1" vertex="1"><mxGeometry x="150" y="130" width="60" height="30" as="geometry"/></mxCell><mxCell id="17" value="存储&lt;br&gt;(用户配置信息) webstorage&lt;br&gt;" style="shape=dataStorage;whiteSpace=wrap;html=1;fixedSize=1;" parent="1" vertex="1"><mxGeometry x="40" y="300" width="100" height="80" as="geometry"/></mxCell><mxCell id="18" value="重新登录" style="text;html=1;strokeColor=none;fillColor=none;align=center;verticalAlign=middle;whiteSpace=wrap;rounded=0;" parent="1" vertex="1"><mxGeometry x="150" y="50" width="60" height="30" as="geometry"/></mxCell><mxCell id="19" value="用户信息展示" style="rounded=0;whiteSpace=wrap;html=1;labelPosition=center;verticalLabelPosition=bottom;align=center;verticalAlign=top;" parent="1" vertex="1"><mxGeometry x="25" y="640" width="130" height="180" as="geometry"/></mxCell><mxCell id="20" value="" style="endArrow=classic;html=1;rounded=0;exitX=0.5;exitY=1;exitDx=0;exitDy=0;entryX=0.5;entryY=0;entryDx=0;entryDy=0;" parent="1" source="17" target="19" edge="1"><mxGeometry width="50" height="50" relative="1" as="geometry"><mxPoint x="350" y="490" as="sourcePoint"/><mxPoint x="400" y="440" as="targetPoint"/><Array as="points"><mxPoint x="90" y="470"/></Array></mxGeometry></mxCell><mxCell id="21" value="" style="endArrow=classic;html=1;rounded=0;" parent="1" target="22" edge="1"><mxGeometry width="50" height="50" relative="1" as="geometry"><mxPoint x="90" y="520" as="sourcePoint"/><mxPoint x="440" y="440" as="targetPoint"/></mxGeometry></mxCell><mxCell id="22" value="用户管理" style="rounded=0;whiteSpace=wrap;html=1;" parent="1" vertex="1"><mxGeometry x="299.9999999999998" y="490" width="120" height="60" as="geometry"/></mxCell><mxCell id="23" value="更新用户信息" style="shape=trapezoid;perimeter=trapezoidPerimeter;whiteSpace=wrap;html=1;fixedSize=1;" parent="1" vertex="1"><mxGeometry x="305" y="390" width="110" height="40" as="geometry"/></mxCell><mxCell id="24" value="" style="endArrow=classic;html=1;rounded=0;entryX=0.5;entryY=0;entryDx=0;entryDy=0;exitX=0.5;exitY=1;exitDx=0;exitDy=0;" parent="1" source="23" target="22" edge="1"><mxGeometry width="50" height="50" relative="1" as="geometry"><mxPoint x="350" y="380" as="sourcePoint"/><mxPoint x="400" y="330" as="targetPoint"/></mxGeometry></mxCell><mxCell id="25" value="" style="endArrow=classic;html=1;rounded=0;entryX=1;entryY=0.5;entryDx=0;entryDy=0;exitX=1;exitY=0.5;exitDx=0;exitDy=0;" parent="1" source="22" target="17" edge="1"><mxGeometry width="50" height="50" relative="1" as="geometry"><mxPoint x="410" y="510" as="sourcePoint"/><mxPoint x="540" y="320" as="targetPoint"/><Array as="points"><mxPoint x="540" y="520"/><mxPoint x="540" y="340"/></Array></mxGeometry></mxCell><mxCell id="26" value="更新状态" style="text;html=1;strokeColor=none;fillColor=none;align=center;verticalAlign=middle;whiteSpace=wrap;rounded=0;" parent="1" vertex="1"><mxGeometry x="25" y="450" width="60" height="30" as="geometry"/></mxCell><mxCell id="27" value="更新用户配置信息&lt;br&gt;webStorage&lt;br&gt;store(用于触发视图更新)" style="text;html=1;strokeColor=none;fillColor=none;align=center;verticalAlign=middle;whiteSpace=wrap;rounded=0;" parent="1" vertex="1"><mxGeometry x="240" y="230" width="190" height="160" as="geometry"/></mxCell><mxCell id="30" value="使用前重新使用&lt;br&gt;webStorage&lt;br&gt;重新设置一次(store)&lt;br&gt;(用于获取最新数据)" style="text;html=1;strokeColor=none;fillColor=none;align=center;verticalAlign=middle;whiteSpace=wrap;rounded=0;" parent="1" vertex="1"><mxGeometry x="10" y="630" width="160" height="130" as="geometry"/></mxCell><mxCell id="32" value="使用store" style="text;html=1;strokeColor=none;fillColor=none;align=center;verticalAlign=middle;whiteSpace=wrap;rounded=0;" parent="1" vertex="1"><mxGeometry x="60" y="740" width="60" height="30" as="geometry"/></mxCell></root></mxGraphModel></diagram></mxfile>